# Blender 4.5.2 LTS
# www.blender.org
mtllib Chair.mtl
o Cube
v 0.205000 0.400000 -0.157500
v 0.205000 0.450000 0.202500
v -0.205000 0.400000 -0.157500
v -0.205000 0.450000 0.202500
v 0.205000 0.450000 -0.202500
v -0.205000 0.450000 -0.202500
v 0.205000 0.900000 -0.252500
v -0.205000 0.900000 -0.252500
v 0.205000 0.400000 0.247500
v -0.205000 0.400000 0.247500
v 0.225000 0.400000 -0.157500
v 0.225000 0.450000 0.202500
v 0.225000 0.450000 -0.202500
v 0.225000 0.900000 -0.252500
v 0.225000 0.400000 0.247500
v -0.225000 0.400000 -0.157500
v -0.225000 0.450000 0.202500
v -0.225000 0.450000 -0.202500
v -0.225000 0.900000 -0.252500
v -0.225000 0.400000 0.247500
v 0.205000 0.400000 0.162500
v 0.205000 0.360000 0.202500
v 0.205000 0.394641 0.182500
v 0.205000 0.380000 0.197141
v -0.205000 0.360000 0.202500
v -0.205000 0.400000 0.162500
v -0.205000 0.380000 0.197141
v -0.205000 0.394641 0.182500
v 0.205000 0.450000 0.207500
v 0.205000 0.410000 0.247500
v 0.205000 0.444641 0.227500
v 0.205000 0.430000 0.242141
v -0.205000 0.450000 0.207500
v -0.205000 0.410000 0.247500
v -0.205000 0.444641 0.227500
v -0.205000 0.430000 0.242141
v 0.225000 0.360000 0.202500
v 0.225000 0.400000 0.162500
v 0.225000 0.440000 0.202500
v 0.225000 0.400000 0.242500
v 0.225000 0.380000 0.197141
v 0.225000 0.394641 0.182500
v 0.225000 0.450000 0.207500
v 0.225000 0.410000 0.247500
v 0.225000 0.444641 0.227500
v 0.225000 0.430000 0.242141
v -0.225000 0.400000 0.162500
v -0.225000 0.360000 0.202500
v -0.225000 0.400000 0.242500
v -0.225000 0.440000 0.202500
v -0.225000 0.394641 0.182500
v -0.225000 0.380000 0.197141
v -0.225000 0.410000 0.247500
v -0.225000 0.450000 0.207500
v -0.225000 0.430000 0.242141
v -0.225000 0.444641 0.227500
v 0.205000 0.450000 -0.117500
v 0.205000 0.490000 -0.157500
v 0.205000 0.455359 -0.137500
v 0.205000 0.470000 -0.152141
v -0.205000 0.490000 -0.157500
v -0.205000 0.450000 -0.117500
v -0.205000 0.470000 -0.152141
v -0.205000 0.455359 -0.137500
v 0.225000 0.490000 -0.157500
v 0.225000 0.450000 -0.117500
v 0.225000 0.410000 -0.157500
v 0.225000 0.450000 -0.197500
v 0.225000 0.470000 -0.152141
v 0.225000 0.455359 -0.137500
v -0.225000 0.450000 -0.117500
v -0.225000 0.490000 -0.157500
v -0.225000 0.450000 -0.197500
v -0.225000 0.410000 -0.157500
v -0.225000 0.455359 -0.137500
v -0.225000 0.470000 -0.152141
v 0.205000 0.890185 -0.235585
v 0.205000 0.900000 -0.247500
v -0.205000 0.900000 -0.247500
v -0.205000 0.890185 -0.235585
v 0.225000 0.900000 -0.247500
v 0.225000 0.890185 -0.235585
v -0.225000 0.890185 -0.235585
v -0.225000 0.900000 -0.247500
v 0.205000 0.009923 -0.206260
v 0.205000 0.000000 -0.217500
v -0.205000 0.000000 -0.217500
v -0.205000 0.009923 -0.206260
v 0.205000 0.000000 -0.242500
v 0.205000 0.009923 -0.251260
v -0.205000 0.009923 -0.251260
v -0.205000 0.000000 -0.242500
v 0.205000 0.009905 0.251124
v 0.205000 0.000000 0.262500
v -0.205000 0.009905 0.251124
v -0.205000 0.000000 0.262500
v 0.205000 0.000000 0.287500
v 0.205000 0.009923 0.296260
v -0.205000 0.000000 0.287500
v -0.205000 0.009923 0.296260
v 0.225000 0.000000 0.262500
v 0.225000 0.009905 0.251124
v 0.225000 0.009923 0.296260
v 0.225000 0.000000 0.287500
v -0.225000 0.009905 0.251124
v -0.225000 0.000000 0.262500
v -0.225000 0.000000 0.287500
v -0.225000 0.009923 0.296260
v 0.205000 0.440000 -0.202500
v 0.205000 0.400000 -0.162500
v 0.205000 0.360309 -0.207461
v 0.205425 0.400000 -0.202500
v 0.205000 0.420000 -0.197141
v 0.205000 0.405359 -0.182500
v -0.205000 0.400000 -0.162500
v -0.205000 0.440000 -0.202500
v -0.205425 0.400000 -0.202500
v -0.205000 0.360309 -0.207461
v -0.205000 0.405359 -0.182500
v -0.205000 0.420000 -0.197141
v 0.225000 0.400000 -0.162500
v 0.225000 0.440000 -0.202500
v 0.225000 0.405359 -0.182500
v 0.225000 0.420000 -0.197141
v -0.225000 0.440000 -0.202500
v -0.225000 0.400000 -0.162500
v -0.225000 0.420000 -0.197141
v -0.225000 0.405359 -0.182500
vn -0.0000 -0.1104 -0.9939
vn 1.0000 -0.0000 -0.0000
vn -1.0000 -0.0000 -0.0000
vn -0.0000 0.2588 0.9659
vn -0.0000 0.7071 0.7071
vn -0.0000 0.9659 0.2588
vn -0.0000 -0.9659 -0.2588
vn -0.0000 -0.7071 -0.7071
vn -0.0000 -0.2588 -0.9659
vn -0.0000 -1.0000 -0.0000
vn -0.0000 1.0000 -0.0000
vn -0.0000 -0.0000 1.0000
vn -0.0000 0.7719 0.6358
vn -0.0000 0.1915 0.9815
vn -0.0000 -0.7542 -0.6567
vn -0.0000 -0.6618 0.7497
vn -0.0000 -0.7497 0.6618
vn -0.0000 -0.6618 -0.7497
vn -0.0000 -0.1240 0.9923
vn -0.0000 -0.1376 -0.9905
vn -0.0000 0.1240 0.9923
vn 0.9999 -0.0009 0.0142
vn -0.9999 -0.0009 0.0142
vn -0.0000 0.1240 -0.9923
vn -0.0000 -0.0000 -1.0000
vt 0.659104 0.324409
vt 0.659104 0.574409
vt 0.390502 0.672490
vt 0.390502 0.672490
vt 0.390502 0.669320
vt 0.390502 0.647613
vt 0.590502 0.672490
vt 0.390502 0.672490
vt 0.409104 0.098298
vt 0.409104 0.074409
vt 0.409104 0.074409
vt 0.582501 0.074409
vt 0.440502 0.672490
vt 0.440502 0.672490
vt 0.540502 0.672490
vt 0.625522 0.672490
vt 0.640502 0.672490
vt 0.640502 0.672490
vt 0.159104 0.796632
vt 0.409104 0.796632
vt 0.409104 0.810521
vt 0.159104 0.810521
vt 0.409104 0.824409
vt 0.159104 0.824409
vt 0.890502 0.672490
vt 0.890502 0.672490
vt 0.640502 0.922490
vt 0.540502 0.922490
vt 0.440502 0.922490
vt 0.409104 0.824409
vt 0.409104 0.821239
vt 0.409104 0.799532
vt 0.890502 0.672490
vt 0.890502 0.672490
vt 0.159104 0.810521
vt 0.159104 0.824409
vt 0.159104 0.574409
vt 0.409104 0.574409
vt 0.390502 0.672490
vt 0.390502 0.922490
vt 0.659104 0.074409
vt 0.459104 0.074409
vt 0.559104 0.074409
vt 0.632309 0.074409
vt 0.640502 0.422490
vt 0.640502 0.422490
vt 0.640502 0.425661
vt 0.640502 0.447278
vt 0.440502 0.422490
vt 0.659104 0.296632
vt 0.659104 0.310521
vt 0.659104 0.320688
vt 0.659104 0.324409
vt 0.459104 0.324409
vt 0.890502 0.450268
vt 0.640502 0.450268
vt 0.640502 0.436379
vt 0.890502 0.436379
vt 0.890502 0.422490
vt 0.640502 0.422490
vt 0.890502 0.450268
vt 0.890502 0.436379
vt 0.890502 0.422490
vt 0.890502 0.422490
vt 0.390502 0.422490
vt 0.409104 0.324409
vt 0.875000 0.500000
vt 0.875000 0.500000
vt 0.159104 0.824409
vt 0.140502 0.672490
vt 0.140502 0.672490
vt 0.140502 0.672490
vt 0.409104 0.574409
vt 0.409104 0.824409
vt 0.390502 0.922490
vt 0.609104 0.574409
vt 0.509104 0.574409
vt 0.428035 0.574409
vt 0.409104 0.550019
vt 0.409104 0.324409
vt 0.438453 0.324409
vt 0.590564 0.324409
vt 0.409104 0.348800
vt 0.424084 0.574409
vt 0.609104 0.574409
vt 0.609104 0.324409
vt 0.509104 0.324409
vt 0.424084 0.324409
vt 0.409104 0.324409
vt 0.405481 0.422490
vt 0.490502 0.422490
vt 0.590502 0.422490
s 0
usemtl 
f 8/1/1 6/1/1 18/1/1 19/1/1
f 5/2/1 6/1/1 8/1/1 7/2/1
f 5/2/1 7/2/1 14/2/1 13/2/1
f 37/3/2 41/4/2 42/5/2 38/6/2 39/7/2 40/8/2
f 47/9/3 51/10/3 52/10/3 48/10/3 49/11/3 50/12/3
f 30/13/4 44/14/4 46/15/4 32/15/4
f 32/15/5 46/15/5 45/16/5 31/17/5
f 31/17/6 45/16/6 43/17/6 29/18/6
f 26/19/7 21/20/7 23/21/7 28/22/7
f 28/22/8 23/21/8 24/23/8 27/24/8
f 27/24/9 24/23/9 22/23/9 25/24/9
f 29/18/6 33/25/6 35/26/6 31/17/6
f 31/17/5 35/27/5 36/28/5 32/15/5
f 32/15/4 36/28/4 34/29/4 30/13/4
f 37/30/9 22/23/9 24/23/9 41/23/9
f 41/23/8 24/23/8 23/21/8 42/31/8
f 42/31/7 23/21/7 21/20/7 38/32/7
f 33/25/6 54/33/6 56/34/6 35/26/6
f 35/27/5 56/27/5 55/28/5 36/28/5
f 36/28/4 55/28/4 53/29/4 34/29/4
f 47/19/7 26/19/7 28/22/7 51/35/7
f 51/35/8 28/22/8 27/24/8 52/36/8
f 52/36/9 27/24/9 25/24/9 48/24/9
f 3/37/10 1/38/10 21/20/10 26/19/10
f 21/20/10 1/38/10 11/38/10 38/32/10
f 3/37/10 26/19/10 47/19/10 16/37/10
f 2/17/11 29/18/11 43/17/11 12/17/11
f 30/13/12 9/39/12 15/39/12 44/14/12
f 9/39/12 30/13/12 34/29/12 10/40/12
f 2/17/11 4/34/11 33/25/11 29/18/11
f 33/25/11 4/34/11 17/34/11 54/33/11
f 10/40/12 34/29/12 53/29/12 20/40/12
f 40/8/2 39/7/2 12/17/2 43/17/2 45/16/2 46/15/2 44/14/2 15/39/2
f 17/41/3 50/12/3 49/11/3 20/10/3 53/42/3 55/43/3 56/44/3 54/41/3
f 65/45/2 69/46/2 70/47/2 66/48/2 67/49/2 68/45/2
f 71/50/3 75/51/3 76/52/3 72/53/3 73/1/3 74/54/3
f 62/55/6 57/56/6 59/57/6 64/58/6
f 64/58/5 59/57/5 60/46/5 63/59/5
f 63/59/4 60/46/4 58/60/4 61/59/4
f 71/61/6 62/55/6 64/58/6 75/62/6
f 75/62/5 64/58/5 63/59/5 76/63/5
f 76/63/4 63/59/4 61/59/4 72/64/4
f 65/45/4 58/60/4 60/46/4 69/46/4
f 69/46/5 60/46/5 59/57/5 70/47/5
f 70/47/6 59/57/6 57/56/6 66/48/6
f 57/56/11 2/17/11 12/17/11 66/48/11
f 57/56/11 62/55/11 4/34/11 2/17/11
f 4/34/11 62/55/11 71/61/11 17/34/11
f 11/65/2 67/49/2 66/48/2 12/17/2 39/7/2 38/6/2
f 47/9/3 50/12/3 17/41/3 71/50/3 74/54/3 16/66/3
f 80/59/13 77/45/13 78/60/13 79/59/13
f 79/59/13 84/59/13 83/59/13 80/59/13
f 77/45/13 82/45/13 81/45/13 78/60/13
f 61/59/14 58/60/14 77/45/14 80/59/14
f 79/59/11 78/60/11 7/45/11 8/59/11
f 7/45/11 78/60/11 81/45/11 14/45/11
f 77/45/14 58/60/14 65/45/14 82/45/14
f 79/67/11 8/67/11 19/67/11 84/68/11
f 61/59/14 80/59/14 83/59/14 72/64/14
f 65/45/2 68/45/2 13/45/2 14/45/2 81/45/2 82/45/2
f 18/1/3 73/1/3 72/53/3 83/1/3 84/1/3 19/1/3
f 105/69/15 95/36/15 96/24/15 106/24/15
f 100/70/16 108/71/16 107/72/16 99/71/16
f 85/73/17 88/37/17 87/37/17 86/38/17
f 89/38/18 92/37/18 91/37/18 90/73/18
f 95/36/15 93/23/15 94/30/15 96/24/15
f 99/71/16 97/3/16 98/8/16 100/70/16
f 93/23/15 102/74/15 101/23/15 94/30/15
f 103/39/16 98/8/16 97/3/16 104/3/16
f 1/38/19 3/37/19 88/37/19 85/73/19
f 86/38/10 87/37/10 92/37/10 89/38/10
f 25/24/20 22/23/20 93/23/20 95/36/20
f 96/24/10 94/30/10 97/30/10 99/24/10
f 97/30/10 94/30/10 101/23/10 104/30/10
f 93/23/20 22/23/20 37/30/20 102/74/20
f 25/24/20 95/36/20 105/69/20 48/24/20
f 96/24/10 99/24/10 107/69/10 106/24/10
f 9/39/21 10/40/21 100/75/21 98/8/21
f 9/39/21 98/8/21 103/39/21 15/39/21
f 100/75/21 10/40/21 20/40/21 108/40/21
f 37/3/2 40/8/2 15/39/2 103/39/2 104/3/2 101/4/2 102/39/2
f 20/10/3 49/11/3 48/10/3 105/10/3 106/11/3 107/10/3 108/10/3
f 109/76/22 113/77/22 114/78/22 110/38/22 111/38/22 112/79/22
f 115/80/23 119/66/23 120/81/23 116/82/23 117/83/23 118/66/23
f 121/73/7 110/38/7 114/78/7 123/84/7
f 123/84/8 114/78/8 113/77/8 124/77/8
f 124/77/9 113/77/9 109/76/9 122/85/9
f 125/86/9 116/82/9 120/81/9 127/87/9
f 127/87/8 120/81/8 119/66/8 128/88/8
f 128/88/7 119/66/7 115/80/7 126/66/7
f 118/66/24 117/83/24 112/79/24 111/38/24 90/73/24 91/89/24
f 117/83/25 116/82/25 6/1/25 5/2/25 109/76/25 112/79/25
f 109/76/25 5/2/25 13/2/25 122/85/25
f 111/38/2 110/38/2 1/38/2 85/73/2 86/38/2 89/38/2 90/73/2
f 1/38/10 110/38/10 121/73/10 11/38/10
f 115/80/10 3/66/10 16/66/10 126/66/10
f 6/1/25 116/82/25 125/86/25 18/1/25
f 3/66/3 115/80/3 118/66/3 91/89/3 92/66/3 87/66/3 88/66/3
f 68/45/2 67/49/2 11/65/2 121/65/2 123/90/2 124/91/2 122/92/2 13/45/2
f 16/66/3 74/54/3 73/1/3 18/1/3 125/86/3 127/87/3 128/88/3 126/66/3
